# xmcd CD database file
#
# Track frame offsets:
#	150
#	13395
#	22677
#	34552
#	68770
#	83247
#	96345
#	112730
#	126165
#	139125
#	156395
#	165282
#	175072
#	203380
#	215722
#
# Disc length: 3316 seconds
#
# Revision: 2
# Processed by: cddbd v1.5.1PL0 Copyright (c) Steve Scherf et al.
# Submitted via: CDex 1.51
#
DISCID=bc0cf20f
DTITLE=Various Artist - Jazz Mocha
DYEAR=2002
DGENRE=Jazz
TTITLE0=Sarah Vaughn - Mean To Me
TTITLE1=Tony Bennett -  Don.t Get Around Much Anymore
TTITLE2=Jimmy Rushing - When Your Smiling
TTITLE3=Duke Ellington - Take The"A"Train
TTITLE4=Benny Goodman - On The Sunny Side Of The Street
TTITLE5=Dave Brubeck - My Favorite Things
TTITLE6=Chet Baker - I Married An Angel
TTITLE7=Bille Holiday  - What A Little Moonlight Can Do-
TTITLE8=Benny Goodman - The Wang Wang Blues
TTITLE9=Louis Armstrong - Mack The Knife
TTITLE10=Carmen McRae - It's A Raggy Waltz
TTITLE11=Dave Brubeck - There'll Be Some Changes Made
TTITLE12=Charles Mingus - Jell Roll
TTITLE13=Duke Ellington - Satin Doll 
TTITLE14=George Benson - California Dreamin 
EXTD=YEAR: 2002
EXTT0=
EXTT1=
EXTT2=
EXTT3=
EXTT4=
EXTT5=
EXTT6=
EXTT7=
EXTT8=
EXTT9=
EXTT10=
EXTT11=
EXTT12=
EXTT13=
EXTT14=
PLAYORDER=
